<svg class="main-svg" xmlns="http://www.w3.org/2000/svg" xmlns:xlink="http://www.w3.org/1999/xlink" width="700" height="500" style="" viewBox="0 0 700 500"><rect x="0" y="0" width="700" height="500" style="fill: rgb(255, 255, 255); fill-opacity: 1;"/><defs id="defs-0de750"><g class="clips"><clipPath id="clip0de750xyplot" class="plotclip"><rect width="530" height="320"/></clipPath><clipPath class="axesclip" id="clip0de750x"><rect x="80" y="0" width="530" height="500"/></clipPath><clipPath class="axesclip" id="clip0de750y"><rect x="0" y="100" width="700" height="320"/></clipPath><clipPath class="axesclip" id="clip0de750xy"><rect x="80" y="100" width="530" height="320"/></clipPath><clipPath class="contourclip" id="clipa8f01b"><path d="M0,0L530,0L530,320L0,320Z"/></clipPath></g><g class="gradients"/><g class="patterns"/></defs><g class="bglayer"><rect class="bg" x="80" y="100" width="530" height="320" style="fill: rgb(229, 236, 246); fill-opacity: 1; stroke-width: 0;"/></g><g class="layer-below"><g class="imagelayer"/><g class="shapelayer"/></g><g class="cartesianlayer"><g class="subplot xy"><g class="layer-subplot"><g class="shapelayer"/><g class="imagelayer"/></g><g class="minor-gridlayer"><g class="x"/><g class="y"/></g><g class="gridlayer"><g class="x"><path class="xgrid crisp" transform="translate(212.5,0)" d="M0,100v320" style="stroke: rgb(255, 255, 255); stroke-opacity: 1; stroke-width: 1px;"/><path class="xgrid crisp" transform="translate(345,0)" d="M0,100v320" style="stroke: rgb(255, 255, 255); stroke-opacity: 1; stroke-width: 1px;"/><path class="xgrid crisp" transform="translate(477.5,0)" d="M0,100v320" style="stroke: rgb(255, 255, 255); stroke-opacity: 1; stroke-width: 1px;"/></g><g class="y"><path class="ygrid crisp" transform="translate(0,340)" d="M80,0h530" style="stroke: rgb(255, 255, 255); stroke-opacity: 1; stroke-width: 1px;"/><path class="ygrid crisp" transform="translate(0,260)" d="M80,0h530" style="stroke: rgb(255, 255, 255); stroke-opacity: 1; stroke-width: 1px;"/><path class="ygrid crisp" transform="translate(0,180)" d="M80,0h530" style="stroke: rgb(255, 255, 255); stroke-opacity: 1; stroke-width: 1px;"/></g></g><g class="zerolinelayer"><path class="xzl zl crisp" transform="translate(80,0)" d="M0,100v320" style="stroke: rgb(255, 255, 255); stroke-opacity: 1; stroke-width: 2px;"/><path class="yzl zl crisp" transform="translate(0,420)" d="M80,0h530" style="stroke: rgb(255, 255, 255); stroke-opacity: 1; stroke-width: 2px;"/></g><path class="xlines-below"/><path class="ylines-below"/><g class="overlines-below"/><g class="xaxislayer-below"/><g class="yaxislayer-below"/><g class="overaxes-below"/><g class="plot" transform="translate(80,100)" clip-path="url(#clip0de750xyplot)"><g class="contourlayer mlayer"><g class="contour" clip-path="url(#clipa8f01b)" style="opacity: 1;"><g class="heatmapcoloring"/><g class="contourbg"><path d="M0,0L530,0L530,320L0,320Z" style="stroke: none; fill: rgb(0, 0, 0);"/></g><g class="contourfill"><path d="M0,7.8L14.32,0L530,0L530,320L0,320Z" style="stroke: none; fill: rgb(12, 0, 38);"/><path d="M0,27.32L50.14,0L530,0L530,320L0,320Z" style="stroke: none; fill: rgb(23, 0, 77);"/><path d="M271.97,320Q268.43,317.52 265,316.92Q256.72,315.47 220.83,320L0,320L0,46.83L85.95,0L530,0L530,320Z" style="stroke: none; fill: rgb(44, 0, 100);"/><path d="M306.84,320Q285.6,305.14 265,301.54Q215.34,292.86 0,320L0,66.34L121.76,0L530,0L530,320Z" style="stroke: none; fill: rgb(78, 0, 100);"/><path d="M341.71,320Q299.25,293.34 265,286.15Q204.11,273.37 0,286.67L0,85.85L157.57,0L530,0L530,320Z" style="stroke: none; fill: rgb(113, 0, 100);"/><path d="M376.58,320Q311.35,282.14 265,270.77Q196.6,253.99 0,253.33L0,105.37L193.38,0L530,0L530,320Z" style="stroke: none; fill: rgb(132, 28, 69);"/><path d="M411.45,320Q322.34,271.5 265,255.38Q190.9,234.54 0,220L0,124.88L229.19,0L530,0L530,320Z" style="stroke: none; fill: rgb(148, 62, 31);"/><path d="M446.32,320Q332.45,261.39 265,240Q186.23,215.02 0,186.67L0,144.39L265,0L530,0L530,320Z" style="stroke: none; fill: rgb(165, 98, 0);"/><path d="M481.18,320Q341.04,250.9 265,224.62C185.08,196.99 15.53,191.21 12.05,160C8.42,127.45 203.04,58 265,30.77Q299.56,15.58 347.81,0L530,0L530,320Z" style="stroke: none; fill: rgb(192, 141, 0);"/><path d="M516.05,320Q344.24,236.62 265,209.23C197.53,185.91 74.92,183.78 72.27,160C69.5,135.2 202.41,89.05 265,61.54Q321.56,36.69 430.63,0L530,0L530,320Z" style="stroke: none; fill: rgb(219, 183, 0);"/><path d="M530,280Q338.46,215.15 265,193.85C213.54,178.93 134.32,176.35 132.5,160C130.6,142.95 213.17,115.08 265,92.31Q334.17,61.91 513.44,0L530,0Z" style="stroke: none; fill: rgb(236, 212, 51);"/><path d="M530,213.33Q325.37,190.1 265,178.46C233.11,172.31 193.72,168.92 192.73,160C191.69,150.7 232.23,133.82 265,123.08Q324.61,103.54 530,80Z" style="stroke: none; fill: rgb(245, 231, 135);"/><path d="M258.975,161.54000000000002C257.99,159.54 260.86,155.75 265,153.85C280.25,146.86 397.52,158.72 397.5,160C397.48,161.31 262.69,169.06 258.975,161.54000000000002Z" style="stroke: none; fill: rgb(255, 250, 220);"/></g><g class="contourlines"><g class="contourlevel"><path class="openline" d="M0,7.8L14.32,0" style="stroke-miterlimit: 1; vector-effect: non-scaling-stroke; fill: none; stroke: rgb(0, 0, 0); stroke-opacity: 1; stroke-width: 0.5px;"/></g><g class="contourlevel"><path class="openline" d="M0,27.32L50.14,0" style="stroke-miterlimit: 1; vector-effect: non-scaling-stroke; fill: none; stroke: rgb(0, 0, 0); stroke-opacity: 1; stroke-width: 0.5px;"/></g><g class="contourlevel"><path class="openline" d="M271.97,320Q268.43,317.52 265,316.92Q256.72,315.47 220.83,320" style="stroke-miterlimit: 1; vector-effect: non-scaling-stroke; fill: none; stroke: rgb(0, 0, 0); stroke-opacity: 1; stroke-width: 0.5px;"/><path class="openline" d="M0,46.83L85.95,0" style="stroke-miterlimit: 1; vector-effect: non-scaling-stroke; fill: none; stroke: rgb(0, 0, 0); stroke-opacity: 1; stroke-width: 0.5px;"/></g><g class="contourlevel"><path class="openline" d="M306.84,320Q285.6,305.14 265,301.54Q215.34,292.86 0,320" style="stroke-miterlimit: 1; vector-effect: non-scaling-stroke; fill: none; stroke: rgb(0, 0, 0); stroke-opacity: 1; stroke-width: 0.5px;"/><path class="openline" d="M0,66.34L121.76,0" style="stroke-miterlimit: 1; vector-effect: non-scaling-stroke; fill: none; stroke: rgb(0, 0, 0); stroke-opacity: 1; stroke-width: 0.5px;"/></g><g class="contourlevel"><path class="openline" d="M341.71,320Q299.25,293.34 265,286.15Q204.11,273.37 0,286.67" style="stroke-miterlimit: 1; vector-effect: non-scaling-stroke; fill: none; stroke: rgb(0, 0, 0); stroke-opacity: 1; stroke-width: 0.5px;"/><path class="openline" d="M0,85.85L157.57,0" style="stroke-miterlimit: 1; vector-effect: non-scaling-stroke; fill: none; stroke: rgb(0, 0, 0); stroke-opacity: 1; stroke-width: 0.5px;"/></g><g class="contourlevel"><path class="openline" d="M376.58,320Q311.35,282.14 265,270.77Q196.6,253.99 0,253.33" style="stroke-miterlimit: 1; vector-effect: non-scaling-stroke; fill: none; stroke: rgb(0, 0, 0); stroke-opacity: 1; stroke-width: 0.5px;"/><path class="openline" d="M0,105.37L193.38,0" style="stroke-miterlimit: 1; vector-effect: non-scaling-stroke; fill: none; stroke: rgb(0, 0, 0); stroke-opacity: 1; stroke-width: 0.5px;"/></g><g class="contourlevel"><path class="openline" d="M411.45,320Q322.34,271.5 265,255.38Q190.9,234.54 0,220" style="stroke-miterlimit: 1; vector-effect: non-scaling-stroke; fill: none; stroke: rgb(0, 0, 0); stroke-opacity: 1; stroke-width: 0.5px;"/><path class="openline" d="M0,124.88L229.19,0" style="stroke-miterlimit: 1; vector-effect: non-scaling-stroke; fill: none; stroke: rgb(0, 0, 0); stroke-opacity: 1; stroke-width: 0.5px;"/></g><g class="contourlevel"><path class="openline" d="M446.32,320Q332.45,261.39 265,240Q186.23,215.02 0,186.67" style="stroke-miterlimit: 1; vector-effect: non-scaling-stroke; fill: none; stroke: rgb(0, 0, 0); stroke-opacity: 1; stroke-width: 0.5px;"/><path class="openline" d="M0,144.39L265,0" style="stroke-miterlimit: 1; vector-effect: non-scaling-stroke; fill: none; stroke: rgb(0, 0, 0); stroke-opacity: 1; stroke-width: 0.5px;"/></g><g class="contourlevel"><path class="openline" d="M481.18,320Q341.04,250.9 265,224.62C185.08,196.99 15.53,191.21 12.05,160C8.42,127.45 203.04,58 265,30.77Q299.56,15.58 347.81,0" style="stroke-miterlimit: 1; vector-effect: non-scaling-stroke; fill: none; stroke: rgb(0, 0, 0); stroke-opacity: 1; stroke-width: 0.5px;"/></g><g class="contourlevel"><path class="openline" d="M516.05,320Q344.24,236.62 265,209.23C197.53,185.91 74.92,183.78 72.27,160C69.5,135.2 202.41,89.05 265,61.54Q321.56,36.69 430.63,0" style="stroke-miterlimit: 1; vector-effect: non-scaling-stroke; fill: none; stroke: rgb(0, 0, 0); stroke-opacity: 1; stroke-width: 0.5px;"/></g><g class="contourlevel"><path class="openline" d="M530,280Q338.46,215.15 265,193.85C213.54,178.93 134.32,176.35 132.5,160C130.6,142.95 213.17,115.08 265,92.31Q334.17,61.91 513.44,0" style="stroke-miterlimit: 1; vector-effect: non-scaling-stroke; fill: none; stroke: rgb(0, 0, 0); stroke-opacity: 1; stroke-width: 0.5px;"/></g><g class="contourlevel"><path class="openline" d="M530,213.33Q325.37,190.1 265,178.46C233.11,172.31 193.72,168.92 192.73,160C191.69,150.7 232.23,133.82 265,123.08Q324.61,103.54 530,80" style="stroke-miterlimit: 1; vector-effect: non-scaling-stroke; fill: none; stroke: rgb(0, 0, 0); stroke-opacity: 1; stroke-width: 0.5px;"/></g><g class="contourlevel"><path class="closedline" d="M258.975,161.54000000000002C257.99,159.54 260.86,155.75 265,153.85C280.25,146.86 397.52,158.72 397.5,160C397.48,161.31 262.69,169.06 258.975,161.54000000000002Z" style="stroke-miterlimit: 1; vector-effect: non-scaling-stroke; fill: none; stroke: rgb(0, 0, 0); stroke-opacity: 1; stroke-width: 0.5px;"/></g></g></g></g></g><g class="overplot"/><path class="xlines-above crisp" d="M0,0" style="fill: none;"/><path class="ylines-above crisp" d="M0,0" style="fill: none;"/><g class="overlines-above"/><g class="xaxislayer-above"><g class="xtick"><text text-anchor="middle" x="0" y="433" transform="translate(80,0)" style="font-family: 'Open Sans', verdana, arial, sans-serif; font-size: 12px; fill: rgb(42, 63, 95); fill-opacity: 1; white-space: pre; opacity: 1;">0</text></g><g class="xtick"><text text-anchor="middle" x="0" y="433" style="font-family: 'Open Sans', verdana, arial, sans-serif; font-size: 12px; fill: rgb(42, 63, 95); fill-opacity: 1; white-space: pre; opacity: 1;" transform="translate(212.5,0)">0.5</text></g><g class="xtick"><text text-anchor="middle" x="0" y="433" style="font-family: 'Open Sans', verdana, arial, sans-serif; font-size: 12px; fill: rgb(42, 63, 95); fill-opacity: 1; white-space: pre; opacity: 1;" transform="translate(345,0)">1</text></g><g class="xtick"><text text-anchor="middle" x="0" y="433" style="font-family: 'Open Sans', verdana, arial, sans-serif; font-size: 12px; fill: rgb(42, 63, 95); fill-opacity: 1; white-space: pre; opacity: 1;" transform="translate(477.5,0)">1.5</text></g><g class="xtick"><text text-anchor="middle" x="0" y="433" style="font-family: 'Open Sans', verdana, arial, sans-serif; font-size: 12px; fill: rgb(42, 63, 95); fill-opacity: 1; white-space: pre; opacity: 1;" transform="translate(610,0)">2</text></g></g><g class="yaxislayer-above"><g class="ytick"><text text-anchor="end" x="79" y="4.199999999999999" transform="translate(0,420)" style="font-family: 'Open Sans', verdana, arial, sans-serif; font-size: 12px; fill: rgb(42, 63, 95); fill-opacity: 1; white-space: pre; opacity: 1;">0</text></g><g class="ytick"><text text-anchor="end" x="79" y="4.199999999999999" style="font-family: 'Open Sans', verdana, arial, sans-serif; font-size: 12px; fill: rgb(42, 63, 95); fill-opacity: 1; white-space: pre; opacity: 1;" transform="translate(0,340)">0.5</text></g><g class="ytick"><text text-anchor="end" x="79" y="4.199999999999999" style="font-family: 'Open Sans', verdana, arial, sans-serif; font-size: 12px; fill: rgb(42, 63, 95); fill-opacity: 1; white-space: pre; opacity: 1;" transform="translate(0,260)">1</text></g><g class="ytick"><text text-anchor="end" x="79" y="4.199999999999999" style="font-family: 'Open Sans', verdana, arial, sans-serif; font-size: 12px; fill: rgb(42, 63, 95); fill-opacity: 1; white-space: pre; opacity: 1;" transform="translate(0,180)">1.5</text></g><g class="ytick"><text text-anchor="end" x="79" y="4.199999999999999" style="font-family: 'Open Sans', verdana, arial, sans-serif; font-size: 12px; fill: rgb(42, 63, 95); fill-opacity: 1; white-space: pre; opacity: 1;" transform="translate(0,100)">2</text></g></g><g class="overaxes-above"/></g></g><g class="polarlayer"/><g class="smithlayer"/><g class="ternarylayer"/><g class="geolayer"/><g class="funnelarealayer"/><g class="pielayer"/><g class="iciclelayer"/><g class="treemaplayer"/><g class="sunburstlayer"/><g class="glimages"/><defs id="topdefs-0de750"><g class="clips"/></defs><g class="layer-above"><g class="imagelayer"/><g class="shapelayer"/></g><g class="infolayer"><g class="cba8f01b colorbar" transform="translate(80,100)"><rect class="cbbg" x="541" y="0" width="67.03125" height="320" style="fill: rgb(0, 0, 0); fill-opacity: 0; stroke: rgb(68, 68, 68); stroke-opacity: 1; stroke-width: 0;"/><g class="cbfills" transform="translate(0,10)"><rect class="cbfill" x="551" y="1" width="30" height="299" fill="#000000" style=""/><rect class="cbfill" x="551" y="1" width="30" height="287" fill="#0c0026" style=""/><rect class="cbfill" x="551" y="1" width="30" height="264" fill="#17004d" style=""/><rect class="cbfill" x="551" y="1" width="30" height="241" fill="#2c0064" style=""/><rect class="cbfill" x="551" y="1" width="30" height="218" fill="#4e0064" style=""/><rect class="cbfill" x="551" y="1" width="30" height="195" fill="#710064" style=""/><rect class="cbfill" x="551" y="1" width="30" height="172" fill="#841c45" style=""/><rect class="cbfill" x="551" y="1" width="30" height="149" fill="#943e1f" style=""/><rect class="cbfill" x="551" y="1" width="30" height="126" fill="#a56200" style=""/><rect class="cbfill" x="551" y="1" width="30" height="103" fill="#c08d00" style=""/><rect class="cbfill" x="551" y="1" width="30" height="80" fill="#dbb700" style=""/><rect class="cbfill" x="551" y="1" width="30" height="57" fill="#ecd433" style=""/><rect class="cbfill" x="551" y="1" width="30" height="34" fill="#f5e787" style=""/><rect class="cbfill" x="551" y="0" width="30" height="12" fill="#fffadc" style=""/></g><g class="cblines" transform="translate(0,10)"><path class="cbline" d="M551,288.25h30" style="fill: none; stroke: rgb(0, 0, 0); stroke-opacity: 1; stroke-width: 0.5px;"/><path class="cbline" d="M551,265.25h30" style="fill: none; stroke: rgb(0, 0, 0); stroke-opacity: 1; stroke-width: 0.5px;"/><path class="cbline" d="M551,242.25h30" style="fill: none; stroke: rgb(0, 0, 0); stroke-opacity: 1; stroke-width: 0.5px;"/><path class="cbline" d="M551,219.25h30" style="fill: none; stroke: rgb(0, 0, 0); stroke-opacity: 1; stroke-width: 0.5px;"/><path class="cbline" d="M551,196.25h30" style="fill: none; stroke: rgb(0, 0, 0); stroke-opacity: 1; stroke-width: 0.5px;"/><path class="cbline" d="M551,173.25h30" style="fill: none; stroke: rgb(0, 0, 0); stroke-opacity: 1; stroke-width: 0.5px;"/><path class="cbline" d="M551,150.25h30" style="fill: none; stroke: rgb(0, 0, 0); stroke-opacity: 1; stroke-width: 0.5px;"/><path class="cbline" d="M551,127.25h30" style="fill: none; stroke: rgb(0, 0, 0); stroke-opacity: 1; stroke-width: 0.5px;"/><path class="cbline" d="M551,104.25h30" style="fill: none; stroke: rgb(0, 0, 0); stroke-opacity: 1; stroke-width: 0.5px;"/><path class="cbline" d="M551,81.25h30" style="fill: none; stroke: rgb(0, 0, 0); stroke-opacity: 1; stroke-width: 0.5px;"/><path class="cbline" d="M551,58.25h30" style="fill: none; stroke: rgb(0, 0, 0); stroke-opacity: 1; stroke-width: 0.5px;"/><path class="cbline" d="M551,35.25h30" style="fill: none; stroke: rgb(0, 0, 0); stroke-opacity: 1; stroke-width: 0.5px;"/><path class="cbline" d="M551,12.25h30" style="fill: none; stroke: rgb(0, 0, 0); stroke-opacity: 1; stroke-width: 0.5px;"/></g><g class="cbaxis crisp" transform="translate(0,-100)"><g class="ycba8f01btick"><text text-anchor="start" x="583.9" y="4.199999999999999" transform="translate(0,398.46)" style="font-family: 'Open Sans', verdana, arial, sans-serif; font-size: 12px; fill: rgb(42, 63, 95); fill-opacity: 1; white-space: pre; opacity: 1;">0.3</text></g><g class="ycba8f01btick"><text text-anchor="start" x="583.9" y="4.199999999999999" style="font-family: 'Open Sans', verdana, arial, sans-serif; font-size: 12px; fill: rgb(42, 63, 95); fill-opacity: 1; white-space: pre; opacity: 1;" transform="translate(0,352.31)">0.4</text></g><g class="ycba8f01btick"><text text-anchor="start" x="583.9" y="4.199999999999999" style="font-family: 'Open Sans', verdana, arial, sans-serif; font-size: 12px; fill: rgb(42, 63, 95); fill-opacity: 1; white-space: pre; opacity: 1;" transform="translate(0,306.15)">0.5</text></g><g class="ycba8f01btick"><text text-anchor="start" x="583.9" y="4.199999999999999" style="font-family: 'Open Sans', verdana, arial, sans-serif; font-size: 12px; fill: rgb(42, 63, 95); fill-opacity: 1; white-space: pre; opacity: 1;" transform="translate(0,260)">0.6</text></g><g class="ycba8f01btick"><text text-anchor="start" x="583.9" y="4.199999999999999" style="font-family: 'Open Sans', verdana, arial, sans-serif; font-size: 12px; fill: rgb(42, 63, 95); fill-opacity: 1; white-space: pre; opacity: 1;" transform="translate(0,213.85)">0.7</text></g><g class="ycba8f01btick"><text text-anchor="start" x="583.9" y="4.199999999999999" style="font-family: 'Open Sans', verdana, arial, sans-serif; font-size: 12px; fill: rgb(42, 63, 95); fill-opacity: 1; white-space: pre; opacity: 1;" transform="translate(0,167.69)">0.8</text></g><g class="ycba8f01btick"><text text-anchor="start" x="583.9" y="4.199999999999999" style="font-family: 'Open Sans', verdana, arial, sans-serif; font-size: 12px; fill: rgb(42, 63, 95); fill-opacity: 1; white-space: pre; opacity: 1;" transform="translate(0,121.53999999999999)">0.9</text></g></g><g class="cbtitleunshift" transform="translate(-80,-100)"><g class="cbtitle"/></g><rect class="cboutline" x="551" y="10" width="30" height="300" style="stroke: rgb(68, 68, 68); stroke-opacity: 1; fill: none; stroke-width: 0;"/></g><g class="g-gtitle"/><g class="g-xtitle"/><g class="g-ytitle"/></g></svg>